M48
; DRILL file {KiCad (6.0.5)} date Tue Jun 14 18:07:39 2022
; FORMAT={-:-/ absolute / metric / decimal}
; #@! TF.CreationDate,2022-06-14T18:07:39+02:00
; #@! TF.GenerationSoftware,Kicad,Pcbnew,(6.0.5)
; #@! TF.FileFunction,Plated,1,2,PTH
FMAT,2
METRIC
; #@! TA.AperFunction,Plated,PTH,ViaDrill
T1C0.400
; #@! TA.AperFunction,Plated,PTH,ComponentDrill
T2C0.750
; #@! TA.AperFunction,Plated,PTH,ComponentDrill
T3C0.800
; #@! TA.AperFunction,Plated,PTH,ComponentDrill
T4C0.900
; #@! TA.AperFunction,Plated,PTH,ComponentDrill
T5C1.016
; #@! TA.AperFunction,Plated,PTH,ComponentDrill
T6C1.100
; #@! TA.AperFunction,Plated,PTH,ComponentDrill
T7C3.048
%
G90
G05
T1
X104.0Y-69.0
X104.0Y-77.0
X104.0Y-81.0
X104.0Y-85.0
X104.0Y-89.0
X104.0Y-93.0
X104.0Y-97.0
X104.0Y-101.0
X104.0Y-105.0
X104.0Y-109.0
X104.0Y-113.0
X104.0Y-117.0
X104.0Y-121.0
X104.023Y-73.026
X108.0Y-69.0
X108.0Y-77.0
X108.0Y-81.0
X108.0Y-85.0
X108.0Y-89.0
X108.0Y-93.0
X108.0Y-97.0
X108.0Y-101.0
X108.0Y-105.0
X108.0Y-109.0
X108.0Y-113.0
X108.0Y-117.0
X108.0Y-121.0
X108.023Y-73.026
X112.0Y-69.0
X112.0Y-77.0
X112.0Y-81.0
X112.0Y-85.0
X112.0Y-89.0
X112.0Y-93.0
X112.0Y-97.0
X112.0Y-101.0
X112.0Y-105.0
X112.0Y-109.0
X112.0Y-113.0
X112.0Y-117.0
X112.0Y-121.0
X112.023Y-73.026
X116.0Y-69.0
X116.0Y-77.0
X116.0Y-81.0
X116.0Y-85.0
X116.023Y-73.026
X117.0Y-97.0
X119.0Y-102.0
X120.0Y-73.0
X120.0Y-77.0
X120.0Y-97.0
X121.0Y-117.0
X121.0Y-121.0
X124.0Y-69.0
X124.0Y-73.0
X124.0Y-77.0
X125.0Y-97.0
X125.0Y-117.0
X125.0Y-121.0
X126.0Y-114.0
X127.0Y-102.0
X127.0Y-109.0
X128.0Y-73.0
X128.0Y-97.0
X129.0Y-121.0
X132.0Y-97.0
X133.0Y-77.0
X133.0Y-114.0
X133.0Y-121.0
X134.0Y-102.0
X134.0Y-109.0
X136.0Y-97.0
X137.0Y-121.0
X139.0Y-73.0
X139.0Y-77.0
X139.0Y-97.0
X141.0Y-102.0
X141.0Y-109.0
X141.0Y-121.0
X142.0Y-97.0
X144.0Y-73.0
X144.0Y-77.0
X145.0Y-121.0
X147.0Y-77.0
X148.0Y-97.0
X149.0Y-73.0
X149.0Y-102.0
X149.0Y-109.0
X149.0Y-121.0
X151.0Y-97.0
X152.0Y-77.0
X153.0Y-121.0
X155.0Y-73.0
X155.0Y-97.0
X156.0Y-102.0
X156.0Y-109.0
X157.0Y-121.0
X159.0Y-77.0
X160.0Y-73.0
X161.0Y-121.0
X162.0Y-97.0
X163.0Y-102.0
X163.0Y-109.0
X165.0Y-121.0
X166.0Y-76.0
X169.0Y-121.0
X170.0Y-69.0
X170.0Y-72.0
X170.0Y-76.0
X171.0Y-102.0
X171.0Y-109.0
X173.0Y-121.0
X174.0Y-69.0
X174.0Y-72.0
X174.0Y-76.0
X174.0Y-78.0
X177.0Y-121.0
X178.0Y-69.0
X178.0Y-72.0
X178.0Y-76.0
X178.0Y-97.0
X178.0Y-102.0
X178.0Y-109.0
X181.0Y-121.0
X182.0Y-69.0
X182.0Y-72.0
X183.0Y-76.0
X185.0Y-97.0
X185.0Y-102.0
X185.0Y-109.0
X185.0Y-121.0
X186.0Y-69.0
X186.0Y-72.0
X186.0Y-75.0
X189.0Y-121.0
X190.0Y-69.0
X190.0Y-72.0
X190.0Y-75.0
X190.0Y-78.0
X192.0Y-97.0
X192.0Y-102.0
X192.0Y-109.0
X193.0Y-121.0
X194.0Y-75.0
X194.0Y-78.0
X197.0Y-121.0
X198.0Y-69.0
X198.0Y-72.0
X198.0Y-75.0
X198.0Y-78.0
X199.0Y-97.0
X199.0Y-102.0
X199.0Y-109.0
X202.0Y-72.0
X202.0Y-75.0
X202.0Y-78.0
T2
X117.61Y-80.21
X117.61Y-81.48
X117.61Y-82.75
X124.75Y-80.21
X124.75Y-81.48
X124.75Y-82.75
X132.11Y-80.21
X132.11Y-81.48
X132.11Y-82.75
X139.36Y-80.21
X139.36Y-81.48
X139.36Y-82.75
X146.61Y-80.21
X146.61Y-81.48
X146.61Y-82.75
X153.86Y-80.21
X153.86Y-81.48
X153.86Y-82.75
X161.11Y-80.21
X161.11Y-81.48
X161.11Y-82.75
X168.25Y-80.21
X168.25Y-81.48
X168.25Y-82.75
X175.75Y-80.21
X175.75Y-81.48
X175.75Y-82.75
X182.86Y-80.21
X182.86Y-81.48
X182.86Y-82.75
X190.0Y-80.21
X190.0Y-81.48
X190.0Y-82.75
X197.36Y-80.21
X197.36Y-81.48
X197.36Y-82.75
T3
X115.9Y-101.32
X115.9Y-111.48
X122.9Y-101.32
X122.9Y-111.48
X130.4Y-101.32
X130.4Y-111.48
X137.4Y-101.32
X137.4Y-111.48
X141.52Y-115.6
X144.9Y-101.4
X144.9Y-111.56
X151.68Y-115.6
X152.4Y-101.32
X152.4Y-111.48
X159.4Y-101.32
X159.4Y-111.48
X166.9Y-101.32
X166.9Y-111.48
X174.4Y-101.32
X174.4Y-111.48
X181.4Y-101.32
X181.4Y-111.48
X188.4Y-101.32
X188.4Y-111.48
X195.9Y-101.32
X195.9Y-111.48
T4
X156.0Y-115.335
X156.0Y-117.875
T5
X127.3Y-70.866
X129.84Y-70.866
X131.318Y-119.126
X132.38Y-70.866
X133.858Y-119.126
X134.92Y-70.866
X136.398Y-119.126
X137.46Y-70.866
X138.938Y-119.126
X140.0Y-70.866
X141.478Y-119.126
X142.54Y-70.866
X144.018Y-119.126
X145.08Y-70.866
X146.558Y-119.126
X149.098Y-70.866
X149.098Y-119.126
X151.638Y-70.866
X154.178Y-70.866
X156.718Y-70.866
X159.258Y-70.866
X161.798Y-70.866
X164.338Y-70.866
X166.878Y-70.866
T6
X115.96Y-88.5
X118.5Y-88.5
X123.19Y-88.5
X125.73Y-88.5
X130.46Y-88.5
X133.0Y-88.5
X137.73Y-88.5
X140.27Y-88.5
X144.96Y-88.5
X147.5Y-88.5
X152.23Y-88.5
X154.77Y-88.5
X159.46Y-88.5
X162.0Y-88.5
X166.73Y-88.5
X169.27Y-88.5
X173.96Y-88.5
X176.5Y-88.5
X181.23Y-88.5
X183.77Y-88.5
X188.46Y-88.5
X191.0Y-88.5
X195.73Y-88.5
X198.27Y-88.5
T7
X117.348Y-119.126
X118.618Y-70.866
X193.548Y-70.866
X199.898Y-119.126
T0
M30
