%TF.GenerationSoftware,KiCad,Pcbnew,(6.0.5)*%
%TF.CreationDate,2022-06-20T15:17:27+02:00*%
%TF.ProjectId,vibrotactile_BCI_shield,76696272-6f74-4616-9374-696c655f4243,rev?*%
%TF.SameCoordinates,Original*%
%TF.FileFunction,Soldermask,Bot*%
%TF.FilePolarity,Negative*%
%FSLAX46Y46*%
G04 Gerber Fmt 4.6, Leading zero omitted, Abs format (unit mm)*
G04 Created by KiCad (PCBNEW (6.0.5)) date 2022-06-20 15:17:27*
%MOMM*%
%LPD*%
G01*
G04 APERTURE LIST*
%ADD10O,1.727200X2.032000*%
%ADD11C,4.064000*%
%ADD12R,2.100000X2.100000*%
%ADD13C,2.100000*%
%ADD14C,1.600000*%
%ADD15O,1.600000X1.600000*%
%ADD16R,1.500000X1.050000*%
%ADD17O,1.500000X1.050000*%
%ADD18R,1.800000X1.800000*%
%ADD19C,1.800000*%
G04 APERTURE END LIST*
D10*
%TO.C,H1*%
X131318000Y-119126000D03*
X133858000Y-119126000D03*
X136398000Y-119126000D03*
X138938000Y-119126000D03*
X141478000Y-119126000D03*
X144018000Y-119126000D03*
X146558000Y-119126000D03*
X149098000Y-119126000D03*
%TD*%
%TO.C,H3*%
X149098000Y-70866000D03*
X151638000Y-70866000D03*
X154178000Y-70866000D03*
X156718000Y-70866000D03*
X159258000Y-70866000D03*
X161798000Y-70866000D03*
X164338000Y-70866000D03*
X166878000Y-70866000D03*
%TD*%
D11*
%TO.C,P1*%
X117348000Y-119126000D03*
%TD*%
%TO.C,P3*%
X199898000Y-119126000D03*
%TD*%
%TO.C,P4*%
X118618000Y-70866000D03*
%TD*%
%TO.C,P2*%
X193548000Y-70866000D03*
%TD*%
D10*
%TO.C,H2*%
X127300000Y-70866000D03*
X129840000Y-70866000D03*
X132380000Y-70866000D03*
X134920000Y-70866000D03*
X137460000Y-70866000D03*
X140000000Y-70866000D03*
X142540000Y-70866000D03*
X145080000Y-70866000D03*
%TD*%
D12*
%TO.C,J10*%
X181230000Y-88500000D03*
D13*
X183770000Y-88500000D03*
%TD*%
D12*
%TO.C,J5*%
X144960000Y-88500000D03*
D13*
X147500000Y-88500000D03*
%TD*%
D12*
%TO.C,J8*%
X166730000Y-88500000D03*
D13*
X169270000Y-88500000D03*
%TD*%
D14*
%TO.C,R1*%
X115900000Y-111480000D03*
D15*
X115900000Y-101320000D03*
%TD*%
D14*
%TO.C,R5*%
X144900000Y-111560000D03*
D15*
X144900000Y-101400000D03*
%TD*%
D14*
%TO.C,R7*%
X159400000Y-111480000D03*
D15*
X159400000Y-101320000D03*
%TD*%
D14*
%TO.C,R3*%
X130400000Y-111480000D03*
D15*
X130400000Y-101320000D03*
%TD*%
D16*
%TO.C,Q7*%
X161110000Y-82750000D03*
D17*
X161110000Y-81480000D03*
X161110000Y-80210000D03*
%TD*%
D16*
%TO.C,Q4*%
X139360000Y-82750000D03*
D17*
X139360000Y-81480000D03*
X139360000Y-80210000D03*
%TD*%
D16*
%TO.C,Q2*%
X124750000Y-82750000D03*
D17*
X124750000Y-81480000D03*
X124750000Y-80210000D03*
%TD*%
D16*
%TO.C,Q6*%
X153860000Y-82750000D03*
D17*
X153860000Y-81480000D03*
X153860000Y-80210000D03*
%TD*%
D14*
%TO.C,R13*%
X141520000Y-115600000D03*
D15*
X151680000Y-115600000D03*
%TD*%
D14*
%TO.C,R9*%
X174400000Y-111480000D03*
D15*
X174400000Y-101320000D03*
%TD*%
D16*
%TO.C,Q11*%
X190000000Y-82750000D03*
D17*
X190000000Y-81480000D03*
X190000000Y-80210000D03*
%TD*%
D12*
%TO.C,J2*%
X123190000Y-88500000D03*
D13*
X125730000Y-88500000D03*
%TD*%
D14*
%TO.C,R8*%
X166900000Y-111480000D03*
D15*
X166900000Y-101320000D03*
%TD*%
D14*
%TO.C,R6*%
X152400000Y-111480000D03*
D15*
X152400000Y-101320000D03*
%TD*%
D18*
%TO.C,D1*%
X156000000Y-117875000D03*
D19*
X156000000Y-115335000D03*
%TD*%
D12*
%TO.C,J7*%
X159460000Y-88500000D03*
D13*
X162000000Y-88500000D03*
%TD*%
D12*
%TO.C,J11*%
X188460000Y-88500000D03*
D13*
X191000000Y-88500000D03*
%TD*%
D16*
%TO.C,Q3*%
X132110000Y-82750000D03*
D17*
X132110000Y-81480000D03*
X132110000Y-80210000D03*
%TD*%
D16*
%TO.C,Q8*%
X168250000Y-82750000D03*
D17*
X168250000Y-81480000D03*
X168250000Y-80210000D03*
%TD*%
D16*
%TO.C,Q10*%
X182860000Y-82750000D03*
D17*
X182860000Y-81480000D03*
X182860000Y-80210000D03*
%TD*%
D12*
%TO.C,J1*%
X115960000Y-88500000D03*
D13*
X118500000Y-88500000D03*
%TD*%
D12*
%TO.C,J12*%
X195730000Y-88500000D03*
D13*
X198270000Y-88500000D03*
%TD*%
D14*
%TO.C,R4*%
X137400000Y-111480000D03*
D15*
X137400000Y-101320000D03*
%TD*%
D14*
%TO.C,R10*%
X181400000Y-111480000D03*
D15*
X181400000Y-101320000D03*
%TD*%
D12*
%TO.C,J9*%
X173960000Y-88500000D03*
D13*
X176500000Y-88500000D03*
%TD*%
D16*
%TO.C,Q5*%
X146610000Y-82750000D03*
D17*
X146610000Y-81480000D03*
X146610000Y-80210000D03*
%TD*%
D12*
%TO.C,J6*%
X152230000Y-88500000D03*
D13*
X154770000Y-88500000D03*
%TD*%
D16*
%TO.C,Q1*%
X117610000Y-82750000D03*
D17*
X117610000Y-81480000D03*
X117610000Y-80210000D03*
%TD*%
D12*
%TO.C,J3*%
X130460000Y-88500000D03*
D13*
X133000000Y-88500000D03*
%TD*%
D16*
%TO.C,Q9*%
X175750000Y-82750000D03*
D17*
X175750000Y-81480000D03*
X175750000Y-80210000D03*
%TD*%
D14*
%TO.C,R2*%
X122900000Y-111480000D03*
D15*
X122900000Y-101320000D03*
%TD*%
D12*
%TO.C,J4*%
X137730000Y-88500000D03*
D13*
X140270000Y-88500000D03*
%TD*%
D14*
%TO.C,R11*%
X188400000Y-111480000D03*
D15*
X188400000Y-101320000D03*
%TD*%
D16*
%TO.C,Q12*%
X197360000Y-82750000D03*
D17*
X197360000Y-81480000D03*
X197360000Y-80210000D03*
%TD*%
D14*
%TO.C,R12*%
X195900000Y-111480000D03*
D15*
X195900000Y-101320000D03*
%TD*%
M02*
