%TF.GenerationSoftware,KiCad,Pcbnew,(6.0.5)*%
%TF.CreationDate,2022-06-14T18:07:34+02:00*%
%TF.ProjectId,vibrotactile_BCI_shield,76696272-6f74-4616-9374-696c655f4243,rev?*%
%TF.SameCoordinates,Original*%
%TF.FileFunction,Legend,Top*%
%TF.FilePolarity,Positive*%
%FSLAX46Y46*%
G04 Gerber Fmt 4.6, Leading zero omitted, Abs format (unit mm)*
G04 Created by KiCad (PCBNEW (6.0.5)) date 2022-06-14 18:07:34*
%MOMM*%
%LPD*%
G01*
G04 APERTURE LIST*
%ADD10C,0.200000*%
%ADD11C,0.300000*%
%ADD12C,0.150000*%
%ADD13C,0.120000*%
%ADD14O,1.727200X2.032000*%
%ADD15C,4.064000*%
G04 APERTURE END LIST*
D10*
X168981517Y-118052380D02*
X168505327Y-118052380D01*
X168630327Y-117052380D01*
X169701755Y-118004761D02*
X169600565Y-118052380D01*
X169410089Y-118052380D01*
X169320803Y-118004761D01*
X169285089Y-117909523D01*
X169332708Y-117528571D01*
X169392232Y-117433333D01*
X169493422Y-117385714D01*
X169683898Y-117385714D01*
X169773184Y-117433333D01*
X169808898Y-117528571D01*
X169796994Y-117623809D01*
X169308898Y-117719047D01*
X169731517Y-117004761D02*
X169570803Y-117147619D01*
X170600565Y-118052380D02*
X170666041Y-117528571D01*
X170630327Y-117433333D01*
X170541041Y-117385714D01*
X170350565Y-117385714D01*
X170249375Y-117433333D01*
X170606517Y-118004761D02*
X170505327Y-118052380D01*
X170267232Y-118052380D01*
X170177946Y-118004761D01*
X170142232Y-117909523D01*
X170154136Y-117814285D01*
X170213660Y-117719047D01*
X170314851Y-117671428D01*
X170552946Y-117671428D01*
X170654136Y-117623809D01*
X171838660Y-118052380D02*
X171963660Y-117052380D01*
X172344613Y-117052380D01*
X172433898Y-117100000D01*
X172475565Y-117147619D01*
X172511279Y-117242857D01*
X172493422Y-117385714D01*
X172433898Y-117480952D01*
X172380327Y-117528571D01*
X172279136Y-117576190D01*
X171898184Y-117576190D01*
X172838660Y-118052380D02*
X172921994Y-117385714D01*
X172963660Y-117052380D02*
X172910089Y-117100000D01*
X172951755Y-117147619D01*
X173005327Y-117100000D01*
X172963660Y-117052380D01*
X172951755Y-117147619D01*
X173457708Y-118052380D02*
X173368422Y-118004761D01*
X173332708Y-117909523D01*
X173439851Y-117052380D01*
X173981517Y-118052380D02*
X173892232Y-118004761D01*
X173856517Y-117909523D01*
X173963660Y-117052380D01*
X174749375Y-118004761D02*
X174648184Y-118052380D01*
X174457708Y-118052380D01*
X174368422Y-118004761D01*
X174332708Y-117909523D01*
X174380327Y-117528571D01*
X174439851Y-117433333D01*
X174541041Y-117385714D01*
X174731517Y-117385714D01*
X174820803Y-117433333D01*
X174856517Y-117528571D01*
X174844613Y-117623809D01*
X174356517Y-117719047D01*
X175160089Y-117385714D02*
X175541041Y-117385714D01*
X175344613Y-117052380D02*
X175237470Y-117909523D01*
X175273184Y-118004761D01*
X175362470Y-118052380D01*
X175457708Y-118052380D01*
X175731517Y-117385714D02*
X176112470Y-117385714D01*
X175916041Y-117052380D02*
X175808898Y-117909523D01*
X175844613Y-118004761D01*
X175933898Y-118052380D01*
X176029136Y-118052380D01*
X176749375Y-118004761D02*
X176648184Y-118052380D01*
X176457708Y-118052380D01*
X176368422Y-118004761D01*
X176332708Y-117909523D01*
X176380327Y-117528571D01*
X176439851Y-117433333D01*
X176541041Y-117385714D01*
X176731517Y-117385714D01*
X176820803Y-117433333D01*
X176856517Y-117528571D01*
X176844613Y-117623809D01*
X176356517Y-117719047D01*
X178046994Y-117528571D02*
X178380327Y-117528571D01*
X178457708Y-118052380D02*
X177981517Y-118052380D01*
X178106517Y-117052380D01*
X178582708Y-117052380D01*
X179314851Y-118052380D02*
X179439851Y-117052380D01*
X179320803Y-118004761D02*
X179219613Y-118052380D01*
X179029136Y-118052380D01*
X178939851Y-118004761D01*
X178898184Y-117957142D01*
X178862470Y-117861904D01*
X178898184Y-117576190D01*
X178957708Y-117480952D01*
X179011279Y-117433333D01*
X179112470Y-117385714D01*
X179302946Y-117385714D01*
X179392232Y-117433333D01*
X179791041Y-118052380D02*
X179874375Y-117385714D01*
X179916041Y-117052380D02*
X179862470Y-117100000D01*
X179904136Y-117147619D01*
X179957708Y-117100000D01*
X179916041Y-117052380D01*
X179904136Y-117147619D01*
X180207708Y-117385714D02*
X180588660Y-117385714D01*
X180392232Y-117052380D02*
X180285089Y-117909523D01*
X180320803Y-118004761D01*
X180410089Y-118052380D01*
X180505327Y-118052380D01*
X180838660Y-118052380D02*
X180921994Y-117385714D01*
X180963660Y-117052380D02*
X180910089Y-117100000D01*
X180951755Y-117147619D01*
X181005327Y-117100000D01*
X180963660Y-117052380D01*
X180951755Y-117147619D01*
X181457708Y-118052380D02*
X181368422Y-118004761D01*
X181326755Y-117957142D01*
X181291041Y-117861904D01*
X181326755Y-117576190D01*
X181386279Y-117480952D01*
X181439851Y-117433333D01*
X181541041Y-117385714D01*
X181683898Y-117385714D01*
X181773184Y-117433333D01*
X181814851Y-117480952D01*
X181850565Y-117576190D01*
X181814851Y-117861904D01*
X181755327Y-117957142D01*
X181701755Y-118004761D01*
X181600565Y-118052380D01*
X181457708Y-118052380D01*
X182302946Y-117385714D02*
X182219613Y-118052380D01*
X182291041Y-117480952D02*
X182344613Y-117433333D01*
X182445803Y-117385714D01*
X182588660Y-117385714D01*
X182677946Y-117433333D01*
X182713660Y-117528571D01*
X182648184Y-118052380D01*
X183933898Y-117671428D02*
X184695803Y-117671428D01*
X185874375Y-117385714D02*
X186029136Y-118052380D01*
X186350565Y-117385714D01*
X187035089Y-118004761D02*
X186933898Y-118052380D01*
X186743422Y-118052380D01*
X186654136Y-118004761D01*
X186618422Y-117909523D01*
X186666041Y-117528571D01*
X186725565Y-117433333D01*
X186826755Y-117385714D01*
X187017232Y-117385714D01*
X187106517Y-117433333D01*
X187142232Y-117528571D01*
X187130327Y-117623809D01*
X186642232Y-117719047D01*
X187505327Y-118052380D02*
X187588660Y-117385714D01*
X187564851Y-117576190D02*
X187624375Y-117480952D01*
X187677946Y-117433333D01*
X187779136Y-117385714D01*
X187874375Y-117385714D01*
X188136279Y-117957142D02*
X188177946Y-118004761D01*
X188124375Y-118052380D01*
X188082708Y-118004761D01*
X188136279Y-117957142D01*
X188124375Y-118052380D01*
X189124375Y-118052380D02*
X188552946Y-118052380D01*
X188838660Y-118052380D02*
X188963660Y-117052380D01*
X188850565Y-117195238D01*
X188743422Y-117290476D01*
X188642232Y-117338095D01*
X189564851Y-117957142D02*
X189606517Y-118004761D01*
X189552946Y-118052380D01*
X189511279Y-118004761D01*
X189564851Y-117957142D01*
X189552946Y-118052380D01*
X190344613Y-117052380D02*
X190439851Y-117052380D01*
X190529136Y-117100000D01*
X190570803Y-117147619D01*
X190606517Y-117242857D01*
X190630327Y-117433333D01*
X190600565Y-117671428D01*
X190529136Y-117861904D01*
X190469613Y-117957142D01*
X190416041Y-118004761D01*
X190314851Y-118052380D01*
X190219613Y-118052380D01*
X190130327Y-118004761D01*
X190088660Y-117957142D01*
X190052946Y-117861904D01*
X190029136Y-117671428D01*
X190058898Y-117433333D01*
X190130327Y-117242857D01*
X190189851Y-117147619D01*
X190243422Y-117100000D01*
X190344613Y-117052380D01*
D11*
X159250000Y-114650000D02*
X159964285Y-114650000D01*
X159107142Y-115078571D02*
X159607142Y-113578571D01*
X160107142Y-115078571D01*
X160607142Y-115078571D02*
X160607142Y-114078571D01*
X160607142Y-114364285D02*
X160678571Y-114221428D01*
X160750000Y-114150000D01*
X160892857Y-114078571D01*
X161035714Y-114078571D01*
X162178571Y-115078571D02*
X162178571Y-113578571D01*
X162178571Y-115007142D02*
X162035714Y-115078571D01*
X161750000Y-115078571D01*
X161607142Y-115007142D01*
X161535714Y-114935714D01*
X161464285Y-114792857D01*
X161464285Y-114364285D01*
X161535714Y-114221428D01*
X161607142Y-114150000D01*
X161750000Y-114078571D01*
X162035714Y-114078571D01*
X162178571Y-114150000D01*
X163535714Y-114078571D02*
X163535714Y-115078571D01*
X162892857Y-114078571D02*
X162892857Y-114864285D01*
X162964285Y-115007142D01*
X163107142Y-115078571D01*
X163321428Y-115078571D01*
X163464285Y-115007142D01*
X163535714Y-114935714D01*
X164250000Y-115078571D02*
X164250000Y-114078571D01*
X164250000Y-113578571D02*
X164178571Y-113650000D01*
X164250000Y-113721428D01*
X164321428Y-113650000D01*
X164250000Y-113578571D01*
X164250000Y-113721428D01*
X164964285Y-114078571D02*
X164964285Y-115078571D01*
X164964285Y-114221428D02*
X165035714Y-114150000D01*
X165178571Y-114078571D01*
X165392857Y-114078571D01*
X165535714Y-114150000D01*
X165607142Y-114292857D01*
X165607142Y-115078571D01*
X166535714Y-115078571D02*
X166392857Y-115007142D01*
X166321428Y-114935714D01*
X166250000Y-114792857D01*
X166250000Y-114364285D01*
X166321428Y-114221428D01*
X166392857Y-114150000D01*
X166535714Y-114078571D01*
X166750000Y-114078571D01*
X166892857Y-114150000D01*
X166964285Y-114221428D01*
X167035714Y-114364285D01*
X167035714Y-114792857D01*
X166964285Y-114935714D01*
X166892857Y-115007142D01*
X166750000Y-115078571D01*
X166535714Y-115078571D01*
X168821428Y-115078571D02*
X168821428Y-113578571D01*
X169321428Y-114650000D01*
X169821428Y-113578571D01*
X169821428Y-115078571D01*
X171107142Y-115007142D02*
X170964285Y-115078571D01*
X170678571Y-115078571D01*
X170535714Y-115007142D01*
X170464285Y-114864285D01*
X170464285Y-114292857D01*
X170535714Y-114150000D01*
X170678571Y-114078571D01*
X170964285Y-114078571D01*
X171107142Y-114150000D01*
X171178571Y-114292857D01*
X171178571Y-114435714D01*
X170464285Y-114578571D01*
X172464285Y-114078571D02*
X172464285Y-115292857D01*
X172392857Y-115435714D01*
X172321428Y-115507142D01*
X172178571Y-115578571D01*
X171964285Y-115578571D01*
X171821428Y-115507142D01*
X172464285Y-115007142D02*
X172321428Y-115078571D01*
X172035714Y-115078571D01*
X171892857Y-115007142D01*
X171821428Y-114935714D01*
X171750000Y-114792857D01*
X171750000Y-114364285D01*
X171821428Y-114221428D01*
X171892857Y-114150000D01*
X172035714Y-114078571D01*
X172321428Y-114078571D01*
X172464285Y-114150000D01*
X173821428Y-115078571D02*
X173821428Y-114292857D01*
X173750000Y-114150000D01*
X173607142Y-114078571D01*
X173321428Y-114078571D01*
X173178571Y-114150000D01*
X173821428Y-115007142D02*
X173678571Y-115078571D01*
X173321428Y-115078571D01*
X173178571Y-115007142D01*
X173107142Y-114864285D01*
X173107142Y-114721428D01*
X173178571Y-114578571D01*
X173321428Y-114507142D01*
X173678571Y-114507142D01*
X173821428Y-114435714D01*
X175464285Y-113578571D02*
X175964285Y-115078571D01*
X176464285Y-113578571D01*
X176964285Y-115078571D02*
X176964285Y-114078571D01*
X176964285Y-113578571D02*
X176892857Y-113650000D01*
X176964285Y-113721428D01*
X177035714Y-113650000D01*
X176964285Y-113578571D01*
X176964285Y-113721428D01*
X177678571Y-115078571D02*
X177678571Y-113578571D01*
X177678571Y-114150000D02*
X177821428Y-114078571D01*
X178107142Y-114078571D01*
X178250000Y-114150000D01*
X178321428Y-114221428D01*
X178392857Y-114364285D01*
X178392857Y-114792857D01*
X178321428Y-114935714D01*
X178250000Y-115007142D01*
X178107142Y-115078571D01*
X177821428Y-115078571D01*
X177678571Y-115007142D01*
X179035714Y-115078571D02*
X179035714Y-114078571D01*
X179035714Y-114364285D02*
X179107142Y-114221428D01*
X179178571Y-114150000D01*
X179321428Y-114078571D01*
X179464285Y-114078571D01*
X180178571Y-115078571D02*
X180035714Y-115007142D01*
X179964285Y-114935714D01*
X179892857Y-114792857D01*
X179892857Y-114364285D01*
X179964285Y-114221428D01*
X180035714Y-114150000D01*
X180178571Y-114078571D01*
X180392857Y-114078571D01*
X180535714Y-114150000D01*
X180607142Y-114221428D01*
X180678571Y-114364285D01*
X180678571Y-114792857D01*
X180607142Y-114935714D01*
X180535714Y-115007142D01*
X180392857Y-115078571D01*
X180178571Y-115078571D01*
X181107142Y-114078571D02*
X181678571Y-114078571D01*
X181321428Y-113578571D02*
X181321428Y-114864285D01*
X181392857Y-115007142D01*
X181535714Y-115078571D01*
X181678571Y-115078571D01*
X182821428Y-115078571D02*
X182821428Y-114292857D01*
X182750000Y-114150000D01*
X182607142Y-114078571D01*
X182321428Y-114078571D01*
X182178571Y-114150000D01*
X182821428Y-115007142D02*
X182678571Y-115078571D01*
X182321428Y-115078571D01*
X182178571Y-115007142D01*
X182107142Y-114864285D01*
X182107142Y-114721428D01*
X182178571Y-114578571D01*
X182321428Y-114507142D01*
X182678571Y-114507142D01*
X182821428Y-114435714D01*
X184178571Y-115007142D02*
X184035714Y-115078571D01*
X183750000Y-115078571D01*
X183607142Y-115007142D01*
X183535714Y-114935714D01*
X183464285Y-114792857D01*
X183464285Y-114364285D01*
X183535714Y-114221428D01*
X183607142Y-114150000D01*
X183750000Y-114078571D01*
X184035714Y-114078571D01*
X184178571Y-114150000D01*
X184607142Y-114078571D02*
X185178571Y-114078571D01*
X184821428Y-113578571D02*
X184821428Y-114864285D01*
X184892857Y-115007142D01*
X185035714Y-115078571D01*
X185178571Y-115078571D01*
X185678571Y-115078571D02*
X185678571Y-114078571D01*
X185678571Y-113578571D02*
X185607142Y-113650000D01*
X185678571Y-113721428D01*
X185750000Y-113650000D01*
X185678571Y-113578571D01*
X185678571Y-113721428D01*
X186607142Y-115078571D02*
X186464285Y-115007142D01*
X186392857Y-114864285D01*
X186392857Y-113578571D01*
X187750000Y-115007142D02*
X187607142Y-115078571D01*
X187321428Y-115078571D01*
X187178571Y-115007142D01*
X187107142Y-114864285D01*
X187107142Y-114292857D01*
X187178571Y-114150000D01*
X187321428Y-114078571D01*
X187607142Y-114078571D01*
X187750000Y-114150000D01*
X187821428Y-114292857D01*
X187821428Y-114435714D01*
X187107142Y-114578571D01*
X190107142Y-114292857D02*
X190321428Y-114364285D01*
X190392857Y-114435714D01*
X190464285Y-114578571D01*
X190464285Y-114792857D01*
X190392857Y-114935714D01*
X190321428Y-115007142D01*
X190178571Y-115078571D01*
X189607142Y-115078571D01*
X189607142Y-113578571D01*
X190107142Y-113578571D01*
X190250000Y-113650000D01*
X190321428Y-113721428D01*
X190392857Y-113864285D01*
X190392857Y-114007142D01*
X190321428Y-114150000D01*
X190250000Y-114221428D01*
X190107142Y-114292857D01*
X189607142Y-114292857D01*
X191964285Y-114935714D02*
X191892857Y-115007142D01*
X191678571Y-115078571D01*
X191535714Y-115078571D01*
X191321428Y-115007142D01*
X191178571Y-114864285D01*
X191107142Y-114721428D01*
X191035714Y-114435714D01*
X191035714Y-114221428D01*
X191107142Y-113935714D01*
X191178571Y-113792857D01*
X191321428Y-113650000D01*
X191535714Y-113578571D01*
X191678571Y-113578571D01*
X191892857Y-113650000D01*
X191964285Y-113721428D01*
X192607142Y-115078571D02*
X192607142Y-113578571D01*
X194392857Y-115007142D02*
X194607142Y-115078571D01*
X194964285Y-115078571D01*
X195107142Y-115007142D01*
X195178571Y-114935714D01*
X195250000Y-114792857D01*
X195250000Y-114650000D01*
X195178571Y-114507142D01*
X195107142Y-114435714D01*
X194964285Y-114364285D01*
X194678571Y-114292857D01*
X194535714Y-114221428D01*
X194464285Y-114150000D01*
X194392857Y-114007142D01*
X194392857Y-113864285D01*
X194464285Y-113721428D01*
X194535714Y-113650000D01*
X194678571Y-113578571D01*
X195035714Y-113578571D01*
X195250000Y-113650000D01*
X195892857Y-115078571D02*
X195892857Y-113578571D01*
X196535714Y-115078571D02*
X196535714Y-114292857D01*
X196464285Y-114150000D01*
X196321428Y-114078571D01*
X196107142Y-114078571D01*
X195964285Y-114150000D01*
X195892857Y-114221428D01*
X197250000Y-115078571D02*
X197250000Y-114078571D01*
X197250000Y-113578571D02*
X197178571Y-113650000D01*
X197250000Y-113721428D01*
X197321428Y-113650000D01*
X197250000Y-113578571D01*
X197250000Y-113721428D01*
X198535714Y-115007142D02*
X198392857Y-115078571D01*
X198107142Y-115078571D01*
X197964285Y-115007142D01*
X197892857Y-114864285D01*
X197892857Y-114292857D01*
X197964285Y-114150000D01*
X198107142Y-114078571D01*
X198392857Y-114078571D01*
X198535714Y-114150000D01*
X198607142Y-114292857D01*
X198607142Y-114435714D01*
X197892857Y-114578571D01*
X199464285Y-115078571D02*
X199321428Y-115007142D01*
X199250000Y-114864285D01*
X199250000Y-113578571D01*
X200678571Y-115078571D02*
X200678571Y-113578571D01*
X200678571Y-115007142D02*
X200535714Y-115078571D01*
X200250000Y-115078571D01*
X200107142Y-115007142D01*
X200035714Y-114935714D01*
X199964285Y-114792857D01*
X199964285Y-114364285D01*
X200035714Y-114221428D01*
X200107142Y-114150000D01*
X200250000Y-114078571D01*
X200535714Y-114078571D01*
X200678571Y-114150000D01*
D12*
%TO.C,H3*%
X157538095Y-74052380D02*
X157538095Y-73052380D01*
X157538095Y-73528571D02*
X158109523Y-73528571D01*
X158109523Y-74052380D02*
X158109523Y-73052380D01*
X158490476Y-73052380D02*
X159109523Y-73052380D01*
X158776190Y-73433333D01*
X158919047Y-73433333D01*
X159014285Y-73480952D01*
X159061904Y-73528571D01*
X159109523Y-73623809D01*
X159109523Y-73861904D01*
X159061904Y-73957142D01*
X159014285Y-74004761D01*
X158919047Y-74052380D01*
X158633333Y-74052380D01*
X158538095Y-74004761D01*
X158490476Y-73957142D01*
%TO.C,H2*%
X135438095Y-74152380D02*
X135438095Y-73152380D01*
X135438095Y-73628571D02*
X136009523Y-73628571D01*
X136009523Y-74152380D02*
X136009523Y-73152380D01*
X136438095Y-73247619D02*
X136485714Y-73200000D01*
X136580952Y-73152380D01*
X136819047Y-73152380D01*
X136914285Y-73200000D01*
X136961904Y-73247619D01*
X137009523Y-73342857D01*
X137009523Y-73438095D01*
X136961904Y-73580952D01*
X136390476Y-74152380D01*
X137009523Y-74152380D01*
%TO.C,H1*%
X127738095Y-119652380D02*
X127738095Y-118652380D01*
X127738095Y-119128571D02*
X128309523Y-119128571D01*
X128309523Y-119652380D02*
X128309523Y-118652380D01*
X129309523Y-119652380D02*
X128738095Y-119652380D01*
X129023809Y-119652380D02*
X129023809Y-118652380D01*
X128928571Y-118795238D01*
X128833333Y-118890476D01*
X128738095Y-118938095D01*
%TO.C,J10*%
X181790476Y-92552380D02*
X181790476Y-93266666D01*
X181742857Y-93409523D01*
X181647619Y-93504761D01*
X181504761Y-93552380D01*
X181409523Y-93552380D01*
X182790476Y-93552380D02*
X182219047Y-93552380D01*
X182504761Y-93552380D02*
X182504761Y-92552380D01*
X182409523Y-92695238D01*
X182314285Y-92790476D01*
X182219047Y-92838095D01*
X183409523Y-92552380D02*
X183504761Y-92552380D01*
X183600000Y-92600000D01*
X183647619Y-92647619D01*
X183695238Y-92742857D01*
X183742857Y-92933333D01*
X183742857Y-93171428D01*
X183695238Y-93361904D01*
X183647619Y-93457142D01*
X183600000Y-93504761D01*
X183504761Y-93552380D01*
X183409523Y-93552380D01*
X183314285Y-93504761D01*
X183266666Y-93457142D01*
X183219047Y-93361904D01*
X183171428Y-93171428D01*
X183171428Y-92933333D01*
X183219047Y-92742857D01*
X183266666Y-92647619D01*
X183314285Y-92600000D01*
X183409523Y-92552380D01*
%TO.C,J5*%
X145966666Y-92552380D02*
X145966666Y-93266666D01*
X145919047Y-93409523D01*
X145823809Y-93504761D01*
X145680952Y-93552380D01*
X145585714Y-93552380D01*
X146919047Y-92552380D02*
X146442857Y-92552380D01*
X146395238Y-93028571D01*
X146442857Y-92980952D01*
X146538095Y-92933333D01*
X146776190Y-92933333D01*
X146871428Y-92980952D01*
X146919047Y-93028571D01*
X146966666Y-93123809D01*
X146966666Y-93361904D01*
X146919047Y-93457142D01*
X146871428Y-93504761D01*
X146776190Y-93552380D01*
X146538095Y-93552380D01*
X146442857Y-93504761D01*
X146395238Y-93457142D01*
%TO.C,J8*%
X167566666Y-92552380D02*
X167566666Y-93266666D01*
X167519047Y-93409523D01*
X167423809Y-93504761D01*
X167280952Y-93552380D01*
X167185714Y-93552380D01*
X168185714Y-92980952D02*
X168090476Y-92933333D01*
X168042857Y-92885714D01*
X167995238Y-92790476D01*
X167995238Y-92742857D01*
X168042857Y-92647619D01*
X168090476Y-92600000D01*
X168185714Y-92552380D01*
X168376190Y-92552380D01*
X168471428Y-92600000D01*
X168519047Y-92647619D01*
X168566666Y-92742857D01*
X168566666Y-92790476D01*
X168519047Y-92885714D01*
X168471428Y-92933333D01*
X168376190Y-92980952D01*
X168185714Y-92980952D01*
X168090476Y-93028571D01*
X168042857Y-93076190D01*
X167995238Y-93171428D01*
X167995238Y-93361904D01*
X168042857Y-93457142D01*
X168090476Y-93504761D01*
X168185714Y-93552380D01*
X168376190Y-93552380D01*
X168471428Y-93504761D01*
X168519047Y-93457142D01*
X168566666Y-93361904D01*
X168566666Y-93171428D01*
X168519047Y-93076190D01*
X168471428Y-93028571D01*
X168376190Y-92980952D01*
%TO.C,R1*%
X113982380Y-106566666D02*
X113506190Y-106900000D01*
X113982380Y-107138095D02*
X112982380Y-107138095D01*
X112982380Y-106757142D01*
X113030000Y-106661904D01*
X113077619Y-106614285D01*
X113172857Y-106566666D01*
X113315714Y-106566666D01*
X113410952Y-106614285D01*
X113458571Y-106661904D01*
X113506190Y-106757142D01*
X113506190Y-107138095D01*
X113982380Y-105614285D02*
X113982380Y-106185714D01*
X113982380Y-105900000D02*
X112982380Y-105900000D01*
X113125238Y-105995238D01*
X113220476Y-106090476D01*
X113268095Y-106185714D01*
%TO.C,R5*%
X142982380Y-106646666D02*
X142506190Y-106980000D01*
X142982380Y-107218095D02*
X141982380Y-107218095D01*
X141982380Y-106837142D01*
X142030000Y-106741904D01*
X142077619Y-106694285D01*
X142172857Y-106646666D01*
X142315714Y-106646666D01*
X142410952Y-106694285D01*
X142458571Y-106741904D01*
X142506190Y-106837142D01*
X142506190Y-107218095D01*
X141982380Y-105741904D02*
X141982380Y-106218095D01*
X142458571Y-106265714D01*
X142410952Y-106218095D01*
X142363333Y-106122857D01*
X142363333Y-105884761D01*
X142410952Y-105789523D01*
X142458571Y-105741904D01*
X142553809Y-105694285D01*
X142791904Y-105694285D01*
X142887142Y-105741904D01*
X142934761Y-105789523D01*
X142982380Y-105884761D01*
X142982380Y-106122857D01*
X142934761Y-106218095D01*
X142887142Y-106265714D01*
%TO.C,R7*%
X157482380Y-106566666D02*
X157006190Y-106900000D01*
X157482380Y-107138095D02*
X156482380Y-107138095D01*
X156482380Y-106757142D01*
X156530000Y-106661904D01*
X156577619Y-106614285D01*
X156672857Y-106566666D01*
X156815714Y-106566666D01*
X156910952Y-106614285D01*
X156958571Y-106661904D01*
X157006190Y-106757142D01*
X157006190Y-107138095D01*
X156482380Y-106233333D02*
X156482380Y-105566666D01*
X157482380Y-105995238D01*
%TO.C,R3*%
X128482380Y-106566666D02*
X128006190Y-106900000D01*
X128482380Y-107138095D02*
X127482380Y-107138095D01*
X127482380Y-106757142D01*
X127530000Y-106661904D01*
X127577619Y-106614285D01*
X127672857Y-106566666D01*
X127815714Y-106566666D01*
X127910952Y-106614285D01*
X127958571Y-106661904D01*
X128006190Y-106757142D01*
X128006190Y-107138095D01*
X127482380Y-106233333D02*
X127482380Y-105614285D01*
X127863333Y-105947619D01*
X127863333Y-105804761D01*
X127910952Y-105709523D01*
X127958571Y-105661904D01*
X128053809Y-105614285D01*
X128291904Y-105614285D01*
X128387142Y-105661904D01*
X128434761Y-105709523D01*
X128482380Y-105804761D01*
X128482380Y-106090476D01*
X128434761Y-106185714D01*
X128387142Y-106233333D01*
%TO.C,Q7*%
X158147619Y-81595238D02*
X158100000Y-81690476D01*
X158004761Y-81785714D01*
X157861904Y-81928571D01*
X157814285Y-82023809D01*
X157814285Y-82119047D01*
X158052380Y-82071428D02*
X158004761Y-82166666D01*
X157909523Y-82261904D01*
X157719047Y-82309523D01*
X157385714Y-82309523D01*
X157195238Y-82261904D01*
X157100000Y-82166666D01*
X157052380Y-82071428D01*
X157052380Y-81880952D01*
X157100000Y-81785714D01*
X157195238Y-81690476D01*
X157385714Y-81642857D01*
X157719047Y-81642857D01*
X157909523Y-81690476D01*
X158004761Y-81785714D01*
X158052380Y-81880952D01*
X158052380Y-82071428D01*
X157052380Y-81309523D02*
X157052380Y-80642857D01*
X158052380Y-81071428D01*
%TO.C,Q4*%
X136347619Y-81575238D02*
X136300000Y-81670476D01*
X136204761Y-81765714D01*
X136061904Y-81908571D01*
X136014285Y-82003809D01*
X136014285Y-82099047D01*
X136252380Y-82051428D02*
X136204761Y-82146666D01*
X136109523Y-82241904D01*
X135919047Y-82289523D01*
X135585714Y-82289523D01*
X135395238Y-82241904D01*
X135300000Y-82146666D01*
X135252380Y-82051428D01*
X135252380Y-81860952D01*
X135300000Y-81765714D01*
X135395238Y-81670476D01*
X135585714Y-81622857D01*
X135919047Y-81622857D01*
X136109523Y-81670476D01*
X136204761Y-81765714D01*
X136252380Y-81860952D01*
X136252380Y-82051428D01*
X135585714Y-80765714D02*
X136252380Y-80765714D01*
X135204761Y-81003809D02*
X135919047Y-81241904D01*
X135919047Y-80622857D01*
%TO.C,Q2*%
X121737619Y-81575238D02*
X121690000Y-81670476D01*
X121594761Y-81765714D01*
X121451904Y-81908571D01*
X121404285Y-82003809D01*
X121404285Y-82099047D01*
X121642380Y-82051428D02*
X121594761Y-82146666D01*
X121499523Y-82241904D01*
X121309047Y-82289523D01*
X120975714Y-82289523D01*
X120785238Y-82241904D01*
X120690000Y-82146666D01*
X120642380Y-82051428D01*
X120642380Y-81860952D01*
X120690000Y-81765714D01*
X120785238Y-81670476D01*
X120975714Y-81622857D01*
X121309047Y-81622857D01*
X121499523Y-81670476D01*
X121594761Y-81765714D01*
X121642380Y-81860952D01*
X121642380Y-82051428D01*
X120737619Y-81241904D02*
X120690000Y-81194285D01*
X120642380Y-81099047D01*
X120642380Y-80860952D01*
X120690000Y-80765714D01*
X120737619Y-80718095D01*
X120832857Y-80670476D01*
X120928095Y-80670476D01*
X121070952Y-80718095D01*
X121642380Y-81289523D01*
X121642380Y-80670476D01*
%TO.C,Q6*%
X150847619Y-81575238D02*
X150800000Y-81670476D01*
X150704761Y-81765714D01*
X150561904Y-81908571D01*
X150514285Y-82003809D01*
X150514285Y-82099047D01*
X150752380Y-82051428D02*
X150704761Y-82146666D01*
X150609523Y-82241904D01*
X150419047Y-82289523D01*
X150085714Y-82289523D01*
X149895238Y-82241904D01*
X149800000Y-82146666D01*
X149752380Y-82051428D01*
X149752380Y-81860952D01*
X149800000Y-81765714D01*
X149895238Y-81670476D01*
X150085714Y-81622857D01*
X150419047Y-81622857D01*
X150609523Y-81670476D01*
X150704761Y-81765714D01*
X150752380Y-81860952D01*
X150752380Y-82051428D01*
X149752380Y-80765714D02*
X149752380Y-80956190D01*
X149800000Y-81051428D01*
X149847619Y-81099047D01*
X149990476Y-81194285D01*
X150180952Y-81241904D01*
X150561904Y-81241904D01*
X150657142Y-81194285D01*
X150704761Y-81146666D01*
X150752380Y-81051428D01*
X150752380Y-80860952D01*
X150704761Y-80765714D01*
X150657142Y-80718095D01*
X150561904Y-80670476D01*
X150323809Y-80670476D01*
X150228571Y-80718095D01*
X150180952Y-80765714D01*
X150133333Y-80860952D01*
X150133333Y-81051428D01*
X150180952Y-81146666D01*
X150228571Y-81194285D01*
X150323809Y-81241904D01*
%TO.C,R13*%
X145857142Y-113852380D02*
X145523809Y-113376190D01*
X145285714Y-113852380D02*
X145285714Y-112852380D01*
X145666666Y-112852380D01*
X145761904Y-112900000D01*
X145809523Y-112947619D01*
X145857142Y-113042857D01*
X145857142Y-113185714D01*
X145809523Y-113280952D01*
X145761904Y-113328571D01*
X145666666Y-113376190D01*
X145285714Y-113376190D01*
X146809523Y-113852380D02*
X146238095Y-113852380D01*
X146523809Y-113852380D02*
X146523809Y-112852380D01*
X146428571Y-112995238D01*
X146333333Y-113090476D01*
X146238095Y-113138095D01*
X147142857Y-112852380D02*
X147761904Y-112852380D01*
X147428571Y-113233333D01*
X147571428Y-113233333D01*
X147666666Y-113280952D01*
X147714285Y-113328571D01*
X147761904Y-113423809D01*
X147761904Y-113661904D01*
X147714285Y-113757142D01*
X147666666Y-113804761D01*
X147571428Y-113852380D01*
X147285714Y-113852380D01*
X147190476Y-113804761D01*
X147142857Y-113757142D01*
%TO.C,R9*%
X172482380Y-106566666D02*
X172006190Y-106900000D01*
X172482380Y-107138095D02*
X171482380Y-107138095D01*
X171482380Y-106757142D01*
X171530000Y-106661904D01*
X171577619Y-106614285D01*
X171672857Y-106566666D01*
X171815714Y-106566666D01*
X171910952Y-106614285D01*
X171958571Y-106661904D01*
X172006190Y-106757142D01*
X172006190Y-107138095D01*
X172482380Y-106090476D02*
X172482380Y-105900000D01*
X172434761Y-105804761D01*
X172387142Y-105757142D01*
X172244285Y-105661904D01*
X172053809Y-105614285D01*
X171672857Y-105614285D01*
X171577619Y-105661904D01*
X171530000Y-105709523D01*
X171482380Y-105804761D01*
X171482380Y-105995238D01*
X171530000Y-106090476D01*
X171577619Y-106138095D01*
X171672857Y-106185714D01*
X171910952Y-106185714D01*
X172006190Y-106138095D01*
X172053809Y-106090476D01*
X172101428Y-105995238D01*
X172101428Y-105804761D01*
X172053809Y-105709523D01*
X172006190Y-105661904D01*
X171910952Y-105614285D01*
%TO.C,Q11*%
X186987619Y-82051428D02*
X186940000Y-82146666D01*
X186844761Y-82241904D01*
X186701904Y-82384761D01*
X186654285Y-82480000D01*
X186654285Y-82575238D01*
X186892380Y-82527619D02*
X186844761Y-82622857D01*
X186749523Y-82718095D01*
X186559047Y-82765714D01*
X186225714Y-82765714D01*
X186035238Y-82718095D01*
X185940000Y-82622857D01*
X185892380Y-82527619D01*
X185892380Y-82337142D01*
X185940000Y-82241904D01*
X186035238Y-82146666D01*
X186225714Y-82099047D01*
X186559047Y-82099047D01*
X186749523Y-82146666D01*
X186844761Y-82241904D01*
X186892380Y-82337142D01*
X186892380Y-82527619D01*
X186892380Y-81146666D02*
X186892380Y-81718095D01*
X186892380Y-81432380D02*
X185892380Y-81432380D01*
X186035238Y-81527619D01*
X186130476Y-81622857D01*
X186178095Y-81718095D01*
X186892380Y-80194285D02*
X186892380Y-80765714D01*
X186892380Y-80480000D02*
X185892380Y-80480000D01*
X186035238Y-80575238D01*
X186130476Y-80670476D01*
X186178095Y-80765714D01*
%TO.C,J2*%
X124126666Y-92452380D02*
X124126666Y-93166666D01*
X124079047Y-93309523D01*
X123983809Y-93404761D01*
X123840952Y-93452380D01*
X123745714Y-93452380D01*
X124555238Y-92547619D02*
X124602857Y-92500000D01*
X124698095Y-92452380D01*
X124936190Y-92452380D01*
X125031428Y-92500000D01*
X125079047Y-92547619D01*
X125126666Y-92642857D01*
X125126666Y-92738095D01*
X125079047Y-92880952D01*
X124507619Y-93452380D01*
X125126666Y-93452380D01*
%TO.C,R8*%
X164982380Y-106566666D02*
X164506190Y-106900000D01*
X164982380Y-107138095D02*
X163982380Y-107138095D01*
X163982380Y-106757142D01*
X164030000Y-106661904D01*
X164077619Y-106614285D01*
X164172857Y-106566666D01*
X164315714Y-106566666D01*
X164410952Y-106614285D01*
X164458571Y-106661904D01*
X164506190Y-106757142D01*
X164506190Y-107138095D01*
X164410952Y-105995238D02*
X164363333Y-106090476D01*
X164315714Y-106138095D01*
X164220476Y-106185714D01*
X164172857Y-106185714D01*
X164077619Y-106138095D01*
X164030000Y-106090476D01*
X163982380Y-105995238D01*
X163982380Y-105804761D01*
X164030000Y-105709523D01*
X164077619Y-105661904D01*
X164172857Y-105614285D01*
X164220476Y-105614285D01*
X164315714Y-105661904D01*
X164363333Y-105709523D01*
X164410952Y-105804761D01*
X164410952Y-105995238D01*
X164458571Y-106090476D01*
X164506190Y-106138095D01*
X164601428Y-106185714D01*
X164791904Y-106185714D01*
X164887142Y-106138095D01*
X164934761Y-106090476D01*
X164982380Y-105995238D01*
X164982380Y-105804761D01*
X164934761Y-105709523D01*
X164887142Y-105661904D01*
X164791904Y-105614285D01*
X164601428Y-105614285D01*
X164506190Y-105661904D01*
X164458571Y-105709523D01*
X164410952Y-105804761D01*
%TO.C,R6*%
X150482380Y-106566666D02*
X150006190Y-106900000D01*
X150482380Y-107138095D02*
X149482380Y-107138095D01*
X149482380Y-106757142D01*
X149530000Y-106661904D01*
X149577619Y-106614285D01*
X149672857Y-106566666D01*
X149815714Y-106566666D01*
X149910952Y-106614285D01*
X149958571Y-106661904D01*
X150006190Y-106757142D01*
X150006190Y-107138095D01*
X149482380Y-105709523D02*
X149482380Y-105900000D01*
X149530000Y-105995238D01*
X149577619Y-106042857D01*
X149720476Y-106138095D01*
X149910952Y-106185714D01*
X150291904Y-106185714D01*
X150387142Y-106138095D01*
X150434761Y-106090476D01*
X150482380Y-105995238D01*
X150482380Y-105804761D01*
X150434761Y-105709523D01*
X150387142Y-105661904D01*
X150291904Y-105614285D01*
X150053809Y-105614285D01*
X149958571Y-105661904D01*
X149910952Y-105709523D01*
X149863333Y-105804761D01*
X149863333Y-105995238D01*
X149910952Y-106090476D01*
X149958571Y-106138095D01*
X150053809Y-106185714D01*
%TO.C,D1*%
X155361904Y-113952380D02*
X155361904Y-112952380D01*
X155600000Y-112952380D01*
X155742857Y-113000000D01*
X155838095Y-113095238D01*
X155885714Y-113190476D01*
X155933333Y-113380952D01*
X155933333Y-113523809D01*
X155885714Y-113714285D01*
X155838095Y-113809523D01*
X155742857Y-113904761D01*
X155600000Y-113952380D01*
X155361904Y-113952380D01*
X156885714Y-113952380D02*
X156314285Y-113952380D01*
X156600000Y-113952380D02*
X156600000Y-112952380D01*
X156504761Y-113095238D01*
X156409523Y-113190476D01*
X156314285Y-113238095D01*
%TO.C,J7*%
X160266666Y-92552380D02*
X160266666Y-93266666D01*
X160219047Y-93409523D01*
X160123809Y-93504761D01*
X159980952Y-93552380D01*
X159885714Y-93552380D01*
X160647619Y-92552380D02*
X161314285Y-92552380D01*
X160885714Y-93552380D01*
%TO.C,J11*%
X188890476Y-92452380D02*
X188890476Y-93166666D01*
X188842857Y-93309523D01*
X188747619Y-93404761D01*
X188604761Y-93452380D01*
X188509523Y-93452380D01*
X189890476Y-93452380D02*
X189319047Y-93452380D01*
X189604761Y-93452380D02*
X189604761Y-92452380D01*
X189509523Y-92595238D01*
X189414285Y-92690476D01*
X189319047Y-92738095D01*
X190842857Y-93452380D02*
X190271428Y-93452380D01*
X190557142Y-93452380D02*
X190557142Y-92452380D01*
X190461904Y-92595238D01*
X190366666Y-92690476D01*
X190271428Y-92738095D01*
%TO.C,Q3*%
X129097619Y-81575238D02*
X129050000Y-81670476D01*
X128954761Y-81765714D01*
X128811904Y-81908571D01*
X128764285Y-82003809D01*
X128764285Y-82099047D01*
X129002380Y-82051428D02*
X128954761Y-82146666D01*
X128859523Y-82241904D01*
X128669047Y-82289523D01*
X128335714Y-82289523D01*
X128145238Y-82241904D01*
X128050000Y-82146666D01*
X128002380Y-82051428D01*
X128002380Y-81860952D01*
X128050000Y-81765714D01*
X128145238Y-81670476D01*
X128335714Y-81622857D01*
X128669047Y-81622857D01*
X128859523Y-81670476D01*
X128954761Y-81765714D01*
X129002380Y-81860952D01*
X129002380Y-82051428D01*
X128002380Y-81289523D02*
X128002380Y-80670476D01*
X128383333Y-81003809D01*
X128383333Y-80860952D01*
X128430952Y-80765714D01*
X128478571Y-80718095D01*
X128573809Y-80670476D01*
X128811904Y-80670476D01*
X128907142Y-80718095D01*
X128954761Y-80765714D01*
X129002380Y-80860952D01*
X129002380Y-81146666D01*
X128954761Y-81241904D01*
X128907142Y-81289523D01*
%TO.C,Q8*%
X165237619Y-81575238D02*
X165190000Y-81670476D01*
X165094761Y-81765714D01*
X164951904Y-81908571D01*
X164904285Y-82003809D01*
X164904285Y-82099047D01*
X165142380Y-82051428D02*
X165094761Y-82146666D01*
X164999523Y-82241904D01*
X164809047Y-82289523D01*
X164475714Y-82289523D01*
X164285238Y-82241904D01*
X164190000Y-82146666D01*
X164142380Y-82051428D01*
X164142380Y-81860952D01*
X164190000Y-81765714D01*
X164285238Y-81670476D01*
X164475714Y-81622857D01*
X164809047Y-81622857D01*
X164999523Y-81670476D01*
X165094761Y-81765714D01*
X165142380Y-81860952D01*
X165142380Y-82051428D01*
X164570952Y-81051428D02*
X164523333Y-81146666D01*
X164475714Y-81194285D01*
X164380476Y-81241904D01*
X164332857Y-81241904D01*
X164237619Y-81194285D01*
X164190000Y-81146666D01*
X164142380Y-81051428D01*
X164142380Y-80860952D01*
X164190000Y-80765714D01*
X164237619Y-80718095D01*
X164332857Y-80670476D01*
X164380476Y-80670476D01*
X164475714Y-80718095D01*
X164523333Y-80765714D01*
X164570952Y-80860952D01*
X164570952Y-81051428D01*
X164618571Y-81146666D01*
X164666190Y-81194285D01*
X164761428Y-81241904D01*
X164951904Y-81241904D01*
X165047142Y-81194285D01*
X165094761Y-81146666D01*
X165142380Y-81051428D01*
X165142380Y-80860952D01*
X165094761Y-80765714D01*
X165047142Y-80718095D01*
X164951904Y-80670476D01*
X164761428Y-80670476D01*
X164666190Y-80718095D01*
X164618571Y-80765714D01*
X164570952Y-80860952D01*
%TO.C,Q10*%
X179847619Y-82051428D02*
X179800000Y-82146666D01*
X179704761Y-82241904D01*
X179561904Y-82384761D01*
X179514285Y-82480000D01*
X179514285Y-82575238D01*
X179752380Y-82527619D02*
X179704761Y-82622857D01*
X179609523Y-82718095D01*
X179419047Y-82765714D01*
X179085714Y-82765714D01*
X178895238Y-82718095D01*
X178800000Y-82622857D01*
X178752380Y-82527619D01*
X178752380Y-82337142D01*
X178800000Y-82241904D01*
X178895238Y-82146666D01*
X179085714Y-82099047D01*
X179419047Y-82099047D01*
X179609523Y-82146666D01*
X179704761Y-82241904D01*
X179752380Y-82337142D01*
X179752380Y-82527619D01*
X179752380Y-81146666D02*
X179752380Y-81718095D01*
X179752380Y-81432380D02*
X178752380Y-81432380D01*
X178895238Y-81527619D01*
X178990476Y-81622857D01*
X179038095Y-81718095D01*
X178752380Y-80527619D02*
X178752380Y-80432380D01*
X178800000Y-80337142D01*
X178847619Y-80289523D01*
X178942857Y-80241904D01*
X179133333Y-80194285D01*
X179371428Y-80194285D01*
X179561904Y-80241904D01*
X179657142Y-80289523D01*
X179704761Y-80337142D01*
X179752380Y-80432380D01*
X179752380Y-80527619D01*
X179704761Y-80622857D01*
X179657142Y-80670476D01*
X179561904Y-80718095D01*
X179371428Y-80765714D01*
X179133333Y-80765714D01*
X178942857Y-80718095D01*
X178847619Y-80670476D01*
X178800000Y-80622857D01*
X178752380Y-80527619D01*
%TO.C,J1*%
X116966666Y-92552380D02*
X116966666Y-93266666D01*
X116919047Y-93409523D01*
X116823809Y-93504761D01*
X116680952Y-93552380D01*
X116585714Y-93552380D01*
X117966666Y-93552380D02*
X117395238Y-93552380D01*
X117680952Y-93552380D02*
X117680952Y-92552380D01*
X117585714Y-92695238D01*
X117490476Y-92790476D01*
X117395238Y-92838095D01*
%TO.C,J12*%
X196290476Y-92452380D02*
X196290476Y-93166666D01*
X196242857Y-93309523D01*
X196147619Y-93404761D01*
X196004761Y-93452380D01*
X195909523Y-93452380D01*
X197290476Y-93452380D02*
X196719047Y-93452380D01*
X197004761Y-93452380D02*
X197004761Y-92452380D01*
X196909523Y-92595238D01*
X196814285Y-92690476D01*
X196719047Y-92738095D01*
X197671428Y-92547619D02*
X197719047Y-92500000D01*
X197814285Y-92452380D01*
X198052380Y-92452380D01*
X198147619Y-92500000D01*
X198195238Y-92547619D01*
X198242857Y-92642857D01*
X198242857Y-92738095D01*
X198195238Y-92880952D01*
X197623809Y-93452380D01*
X198242857Y-93452380D01*
%TO.C,R4*%
X135482380Y-106566666D02*
X135006190Y-106900000D01*
X135482380Y-107138095D02*
X134482380Y-107138095D01*
X134482380Y-106757142D01*
X134530000Y-106661904D01*
X134577619Y-106614285D01*
X134672857Y-106566666D01*
X134815714Y-106566666D01*
X134910952Y-106614285D01*
X134958571Y-106661904D01*
X135006190Y-106757142D01*
X135006190Y-107138095D01*
X134815714Y-105709523D02*
X135482380Y-105709523D01*
X134434761Y-105947619D02*
X135149047Y-106185714D01*
X135149047Y-105566666D01*
%TO.C,R10*%
X179482380Y-107042857D02*
X179006190Y-107376190D01*
X179482380Y-107614285D02*
X178482380Y-107614285D01*
X178482380Y-107233333D01*
X178530000Y-107138095D01*
X178577619Y-107090476D01*
X178672857Y-107042857D01*
X178815714Y-107042857D01*
X178910952Y-107090476D01*
X178958571Y-107138095D01*
X179006190Y-107233333D01*
X179006190Y-107614285D01*
X179482380Y-106090476D02*
X179482380Y-106661904D01*
X179482380Y-106376190D02*
X178482380Y-106376190D01*
X178625238Y-106471428D01*
X178720476Y-106566666D01*
X178768095Y-106661904D01*
X178482380Y-105471428D02*
X178482380Y-105376190D01*
X178530000Y-105280952D01*
X178577619Y-105233333D01*
X178672857Y-105185714D01*
X178863333Y-105138095D01*
X179101428Y-105138095D01*
X179291904Y-105185714D01*
X179387142Y-105233333D01*
X179434761Y-105280952D01*
X179482380Y-105376190D01*
X179482380Y-105471428D01*
X179434761Y-105566666D01*
X179387142Y-105614285D01*
X179291904Y-105661904D01*
X179101428Y-105709523D01*
X178863333Y-105709523D01*
X178672857Y-105661904D01*
X178577619Y-105614285D01*
X178530000Y-105566666D01*
X178482380Y-105471428D01*
%TO.C,J9*%
X174866666Y-92552380D02*
X174866666Y-93266666D01*
X174819047Y-93409523D01*
X174723809Y-93504761D01*
X174580952Y-93552380D01*
X174485714Y-93552380D01*
X175390476Y-93552380D02*
X175580952Y-93552380D01*
X175676190Y-93504761D01*
X175723809Y-93457142D01*
X175819047Y-93314285D01*
X175866666Y-93123809D01*
X175866666Y-92742857D01*
X175819047Y-92647619D01*
X175771428Y-92600000D01*
X175676190Y-92552380D01*
X175485714Y-92552380D01*
X175390476Y-92600000D01*
X175342857Y-92647619D01*
X175295238Y-92742857D01*
X175295238Y-92980952D01*
X175342857Y-93076190D01*
X175390476Y-93123809D01*
X175485714Y-93171428D01*
X175676190Y-93171428D01*
X175771428Y-93123809D01*
X175819047Y-93076190D01*
X175866666Y-92980952D01*
%TO.C,Q5*%
X143597619Y-81575238D02*
X143550000Y-81670476D01*
X143454761Y-81765714D01*
X143311904Y-81908571D01*
X143264285Y-82003809D01*
X143264285Y-82099047D01*
X143502380Y-82051428D02*
X143454761Y-82146666D01*
X143359523Y-82241904D01*
X143169047Y-82289523D01*
X142835714Y-82289523D01*
X142645238Y-82241904D01*
X142550000Y-82146666D01*
X142502380Y-82051428D01*
X142502380Y-81860952D01*
X142550000Y-81765714D01*
X142645238Y-81670476D01*
X142835714Y-81622857D01*
X143169047Y-81622857D01*
X143359523Y-81670476D01*
X143454761Y-81765714D01*
X143502380Y-81860952D01*
X143502380Y-82051428D01*
X142502380Y-80718095D02*
X142502380Y-81194285D01*
X142978571Y-81241904D01*
X142930952Y-81194285D01*
X142883333Y-81099047D01*
X142883333Y-80860952D01*
X142930952Y-80765714D01*
X142978571Y-80718095D01*
X143073809Y-80670476D01*
X143311904Y-80670476D01*
X143407142Y-80718095D01*
X143454761Y-80765714D01*
X143502380Y-80860952D01*
X143502380Y-81099047D01*
X143454761Y-81194285D01*
X143407142Y-81241904D01*
%TO.C,J6*%
X153166666Y-92552380D02*
X153166666Y-93266666D01*
X153119047Y-93409523D01*
X153023809Y-93504761D01*
X152880952Y-93552380D01*
X152785714Y-93552380D01*
X154071428Y-92552380D02*
X153880952Y-92552380D01*
X153785714Y-92600000D01*
X153738095Y-92647619D01*
X153642857Y-92790476D01*
X153595238Y-92980952D01*
X153595238Y-93361904D01*
X153642857Y-93457142D01*
X153690476Y-93504761D01*
X153785714Y-93552380D01*
X153976190Y-93552380D01*
X154071428Y-93504761D01*
X154119047Y-93457142D01*
X154166666Y-93361904D01*
X154166666Y-93123809D01*
X154119047Y-93028571D01*
X154071428Y-92980952D01*
X153976190Y-92933333D01*
X153785714Y-92933333D01*
X153690476Y-92980952D01*
X153642857Y-93028571D01*
X153595238Y-93123809D01*
%TO.C,Q1*%
X114597619Y-81575238D02*
X114550000Y-81670476D01*
X114454761Y-81765714D01*
X114311904Y-81908571D01*
X114264285Y-82003809D01*
X114264285Y-82099047D01*
X114502380Y-82051428D02*
X114454761Y-82146666D01*
X114359523Y-82241904D01*
X114169047Y-82289523D01*
X113835714Y-82289523D01*
X113645238Y-82241904D01*
X113550000Y-82146666D01*
X113502380Y-82051428D01*
X113502380Y-81860952D01*
X113550000Y-81765714D01*
X113645238Y-81670476D01*
X113835714Y-81622857D01*
X114169047Y-81622857D01*
X114359523Y-81670476D01*
X114454761Y-81765714D01*
X114502380Y-81860952D01*
X114502380Y-82051428D01*
X114502380Y-80670476D02*
X114502380Y-81241904D01*
X114502380Y-80956190D02*
X113502380Y-80956190D01*
X113645238Y-81051428D01*
X113740476Y-81146666D01*
X113788095Y-81241904D01*
%TO.C,J3*%
X131366666Y-92452380D02*
X131366666Y-93166666D01*
X131319047Y-93309523D01*
X131223809Y-93404761D01*
X131080952Y-93452380D01*
X130985714Y-93452380D01*
X131747619Y-92452380D02*
X132366666Y-92452380D01*
X132033333Y-92833333D01*
X132176190Y-92833333D01*
X132271428Y-92880952D01*
X132319047Y-92928571D01*
X132366666Y-93023809D01*
X132366666Y-93261904D01*
X132319047Y-93357142D01*
X132271428Y-93404761D01*
X132176190Y-93452380D01*
X131890476Y-93452380D01*
X131795238Y-93404761D01*
X131747619Y-93357142D01*
%TO.C,Q9*%
X172847619Y-81495238D02*
X172800000Y-81590476D01*
X172704761Y-81685714D01*
X172561904Y-81828571D01*
X172514285Y-81923809D01*
X172514285Y-82019047D01*
X172752380Y-81971428D02*
X172704761Y-82066666D01*
X172609523Y-82161904D01*
X172419047Y-82209523D01*
X172085714Y-82209523D01*
X171895238Y-82161904D01*
X171800000Y-82066666D01*
X171752380Y-81971428D01*
X171752380Y-81780952D01*
X171800000Y-81685714D01*
X171895238Y-81590476D01*
X172085714Y-81542857D01*
X172419047Y-81542857D01*
X172609523Y-81590476D01*
X172704761Y-81685714D01*
X172752380Y-81780952D01*
X172752380Y-81971428D01*
X172752380Y-81066666D02*
X172752380Y-80876190D01*
X172704761Y-80780952D01*
X172657142Y-80733333D01*
X172514285Y-80638095D01*
X172323809Y-80590476D01*
X171942857Y-80590476D01*
X171847619Y-80638095D01*
X171800000Y-80685714D01*
X171752380Y-80780952D01*
X171752380Y-80971428D01*
X171800000Y-81066666D01*
X171847619Y-81114285D01*
X171942857Y-81161904D01*
X172180952Y-81161904D01*
X172276190Y-81114285D01*
X172323809Y-81066666D01*
X172371428Y-80971428D01*
X172371428Y-80780952D01*
X172323809Y-80685714D01*
X172276190Y-80638095D01*
X172180952Y-80590476D01*
%TO.C,R2*%
X120982380Y-106566666D02*
X120506190Y-106900000D01*
X120982380Y-107138095D02*
X119982380Y-107138095D01*
X119982380Y-106757142D01*
X120030000Y-106661904D01*
X120077619Y-106614285D01*
X120172857Y-106566666D01*
X120315714Y-106566666D01*
X120410952Y-106614285D01*
X120458571Y-106661904D01*
X120506190Y-106757142D01*
X120506190Y-107138095D01*
X120077619Y-106185714D02*
X120030000Y-106138095D01*
X119982380Y-106042857D01*
X119982380Y-105804761D01*
X120030000Y-105709523D01*
X120077619Y-105661904D01*
X120172857Y-105614285D01*
X120268095Y-105614285D01*
X120410952Y-105661904D01*
X120982380Y-106233333D01*
X120982380Y-105614285D01*
%TO.C,J4*%
X138666666Y-92552380D02*
X138666666Y-93266666D01*
X138619047Y-93409523D01*
X138523809Y-93504761D01*
X138380952Y-93552380D01*
X138285714Y-93552380D01*
X139571428Y-92885714D02*
X139571428Y-93552380D01*
X139333333Y-92504761D02*
X139095238Y-93219047D01*
X139714285Y-93219047D01*
%TO.C,R11*%
X186482380Y-107042857D02*
X186006190Y-107376190D01*
X186482380Y-107614285D02*
X185482380Y-107614285D01*
X185482380Y-107233333D01*
X185530000Y-107138095D01*
X185577619Y-107090476D01*
X185672857Y-107042857D01*
X185815714Y-107042857D01*
X185910952Y-107090476D01*
X185958571Y-107138095D01*
X186006190Y-107233333D01*
X186006190Y-107614285D01*
X186482380Y-106090476D02*
X186482380Y-106661904D01*
X186482380Y-106376190D02*
X185482380Y-106376190D01*
X185625238Y-106471428D01*
X185720476Y-106566666D01*
X185768095Y-106661904D01*
X186482380Y-105138095D02*
X186482380Y-105709523D01*
X186482380Y-105423809D02*
X185482380Y-105423809D01*
X185625238Y-105519047D01*
X185720476Y-105614285D01*
X185768095Y-105709523D01*
%TO.C,Q12*%
X194347619Y-82171428D02*
X194300000Y-82266666D01*
X194204761Y-82361904D01*
X194061904Y-82504761D01*
X194014285Y-82600000D01*
X194014285Y-82695238D01*
X194252380Y-82647619D02*
X194204761Y-82742857D01*
X194109523Y-82838095D01*
X193919047Y-82885714D01*
X193585714Y-82885714D01*
X193395238Y-82838095D01*
X193300000Y-82742857D01*
X193252380Y-82647619D01*
X193252380Y-82457142D01*
X193300000Y-82361904D01*
X193395238Y-82266666D01*
X193585714Y-82219047D01*
X193919047Y-82219047D01*
X194109523Y-82266666D01*
X194204761Y-82361904D01*
X194252380Y-82457142D01*
X194252380Y-82647619D01*
X194252380Y-81266666D02*
X194252380Y-81838095D01*
X194252380Y-81552380D02*
X193252380Y-81552380D01*
X193395238Y-81647619D01*
X193490476Y-81742857D01*
X193538095Y-81838095D01*
X193347619Y-80885714D02*
X193300000Y-80838095D01*
X193252380Y-80742857D01*
X193252380Y-80504761D01*
X193300000Y-80409523D01*
X193347619Y-80361904D01*
X193442857Y-80314285D01*
X193538095Y-80314285D01*
X193680952Y-80361904D01*
X194252380Y-80933333D01*
X194252380Y-80314285D01*
%TO.C,R12*%
X193982380Y-107042857D02*
X193506190Y-107376190D01*
X193982380Y-107614285D02*
X192982380Y-107614285D01*
X192982380Y-107233333D01*
X193030000Y-107138095D01*
X193077619Y-107090476D01*
X193172857Y-107042857D01*
X193315714Y-107042857D01*
X193410952Y-107090476D01*
X193458571Y-107138095D01*
X193506190Y-107233333D01*
X193506190Y-107614285D01*
X193982380Y-106090476D02*
X193982380Y-106661904D01*
X193982380Y-106376190D02*
X192982380Y-106376190D01*
X193125238Y-106471428D01*
X193220476Y-106566666D01*
X193268095Y-106661904D01*
X193077619Y-105709523D02*
X193030000Y-105661904D01*
X192982380Y-105566666D01*
X192982380Y-105328571D01*
X193030000Y-105233333D01*
X193077619Y-105185714D01*
X193172857Y-105138095D01*
X193268095Y-105138095D01*
X193410952Y-105185714D01*
X193982380Y-105757142D01*
X193982380Y-105138095D01*
%TO.C,H3*%
X147548000Y-69316000D02*
X147548000Y-72416000D01*
X168148000Y-69596000D02*
X150368000Y-69596000D01*
X168148000Y-72136000D02*
X168148000Y-69596000D01*
X150368000Y-72136000D02*
X168148000Y-72136000D01*
X149098000Y-69316000D02*
X147548000Y-69316000D01*
X147548000Y-72416000D02*
X149098000Y-72416000D01*
X150368000Y-72136000D02*
X150368000Y-69596000D01*
%TO.C,H2*%
X128570000Y-72136000D02*
X146350000Y-72136000D01*
X128570000Y-72136000D02*
X128570000Y-69596000D01*
X146350000Y-69596000D02*
X128570000Y-69596000D01*
X125750000Y-69316000D02*
X125750000Y-72416000D01*
X125750000Y-72416000D02*
X127300000Y-72416000D01*
X127300000Y-69316000D02*
X125750000Y-69316000D01*
X146350000Y-72136000D02*
X146350000Y-69596000D01*
%TO.C,H1*%
X150368000Y-117856000D02*
X132588000Y-117856000D01*
X150368000Y-120396000D02*
X150368000Y-117856000D01*
X132588000Y-120396000D02*
X150368000Y-120396000D01*
X132588000Y-120396000D02*
X132588000Y-117856000D01*
X131318000Y-117576000D02*
X129768000Y-117576000D01*
X129768000Y-120676000D02*
X131318000Y-120676000D01*
X129768000Y-117576000D02*
X129768000Y-120676000D01*
%TO.C,P1*%
X119634000Y-119126000D02*
G75*
G03*
X119634000Y-119126000I-2286000J0D01*
G01*
%TO.C,P3*%
X202184000Y-119126000D02*
G75*
G03*
X202184000Y-119126000I-2286000J0D01*
G01*
%TO.C,P4*%
X120904000Y-70866000D02*
G75*
G03*
X120904000Y-70866000I-2286000J0D01*
G01*
%TO.C,P2*%
X195834000Y-70866000D02*
G75*
G03*
X195834000Y-70866000I-2286000J0D01*
G01*
D13*
%TO.C,J10*%
X179610000Y-91350000D02*
X185390000Y-91350000D01*
X185390000Y-85130000D02*
X185390000Y-91870000D01*
X179610000Y-85130000D02*
X185390000Y-85130000D01*
X179610000Y-86250000D02*
X185390000Y-86250000D01*
X179610000Y-85130000D02*
X179610000Y-91870000D01*
X179370000Y-92110000D02*
X179770000Y-92110000D01*
X179610000Y-91870000D02*
X185390000Y-91870000D01*
X179370000Y-91470000D02*
X179370000Y-92110000D01*
%TO.C,J5*%
X149120000Y-85130000D02*
X149120000Y-91870000D01*
X143340000Y-91870000D02*
X149120000Y-91870000D01*
X143100000Y-92110000D02*
X143500000Y-92110000D01*
X143340000Y-85130000D02*
X143340000Y-91870000D01*
X143340000Y-86250000D02*
X149120000Y-86250000D01*
X143340000Y-91350000D02*
X149120000Y-91350000D01*
X143100000Y-91470000D02*
X143100000Y-92110000D01*
X143340000Y-85130000D02*
X149120000Y-85130000D01*
%TO.C,J8*%
X165110000Y-85130000D02*
X165110000Y-91870000D01*
X164870000Y-91470000D02*
X164870000Y-92110000D01*
X165110000Y-85130000D02*
X170890000Y-85130000D01*
X165110000Y-86250000D02*
X170890000Y-86250000D01*
X170890000Y-85130000D02*
X170890000Y-91870000D01*
X165110000Y-91870000D02*
X170890000Y-91870000D01*
X165110000Y-91350000D02*
X170890000Y-91350000D01*
X164870000Y-92110000D02*
X165270000Y-92110000D01*
%TO.C,R1*%
X114530000Y-109670000D02*
X117270000Y-109670000D01*
X115900000Y-110440000D02*
X115900000Y-109670000D01*
X114530000Y-103130000D02*
X114530000Y-109670000D01*
X117270000Y-109670000D02*
X117270000Y-103130000D01*
X117270000Y-103130000D02*
X114530000Y-103130000D01*
X115900000Y-102360000D02*
X115900000Y-103130000D01*
%TO.C,R5*%
X146270000Y-109750000D02*
X146270000Y-103210000D01*
X144900000Y-102440000D02*
X144900000Y-103210000D01*
X143530000Y-103210000D02*
X143530000Y-109750000D01*
X146270000Y-103210000D02*
X143530000Y-103210000D01*
X144900000Y-110520000D02*
X144900000Y-109750000D01*
X143530000Y-109750000D02*
X146270000Y-109750000D01*
%TO.C,R7*%
X158030000Y-109670000D02*
X160770000Y-109670000D01*
X160770000Y-103130000D02*
X158030000Y-103130000D01*
X160770000Y-109670000D02*
X160770000Y-103130000D01*
X159400000Y-110440000D02*
X159400000Y-109670000D01*
X158030000Y-103130000D02*
X158030000Y-109670000D01*
X159400000Y-102360000D02*
X159400000Y-103130000D01*
%TO.C,R3*%
X131770000Y-109670000D02*
X131770000Y-103130000D01*
X129030000Y-103130000D02*
X129030000Y-109670000D01*
X130400000Y-110440000D02*
X130400000Y-109670000D01*
X131770000Y-103130000D02*
X129030000Y-103130000D01*
X130400000Y-102360000D02*
X130400000Y-103130000D01*
X129030000Y-109670000D02*
X131770000Y-109670000D01*
%TO.C,Q7*%
X162948478Y-79641522D02*
G75*
G03*
X158510000Y-81480000I-1838478J-1838478D01*
G01*
X158509999Y-81480000D02*
G75*
G03*
X162948478Y-83318478I2600001J0D01*
G01*
X162960000Y-83280000D02*
X162960000Y-79680000D01*
%TO.C,Q4*%
X141198478Y-79641522D02*
G75*
G03*
X136760000Y-81480000I-1838478J-1838478D01*
G01*
X136759999Y-81480000D02*
G75*
G03*
X141198478Y-83318478I2600001J0D01*
G01*
X141210000Y-83280000D02*
X141210000Y-79680000D01*
%TO.C,Q2*%
X126588478Y-79641522D02*
G75*
G03*
X122150000Y-81480000I-1838478J-1838478D01*
G01*
X122149999Y-81480000D02*
G75*
G03*
X126588478Y-83318478I2600001J0D01*
G01*
X126600000Y-83280000D02*
X126600000Y-79680000D01*
%TO.C,Q6*%
X155698478Y-79641522D02*
G75*
G03*
X151260000Y-81480000I-1838478J-1838478D01*
G01*
X151259999Y-81480000D02*
G75*
G03*
X155698478Y-83318478I2600001J0D01*
G01*
X155710000Y-83280000D02*
X155710000Y-79680000D01*
%TO.C,R13*%
X149870000Y-114230000D02*
X143330000Y-114230000D01*
X143330000Y-116970000D02*
X149870000Y-116970000D01*
X150640000Y-115600000D02*
X149870000Y-115600000D01*
X142560000Y-115600000D02*
X143330000Y-115600000D01*
X143330000Y-114230000D02*
X143330000Y-116970000D01*
X149870000Y-116970000D02*
X149870000Y-114230000D01*
%TO.C,R9*%
X174400000Y-110440000D02*
X174400000Y-109670000D01*
X173030000Y-103130000D02*
X173030000Y-109670000D01*
X175770000Y-103130000D02*
X173030000Y-103130000D01*
X173030000Y-109670000D02*
X175770000Y-109670000D01*
X174400000Y-102360000D02*
X174400000Y-103130000D01*
X175770000Y-109670000D02*
X175770000Y-103130000D01*
%TO.C,Q11*%
X191838478Y-79641522D02*
G75*
G03*
X187400000Y-81480000I-1838478J-1838478D01*
G01*
X187399999Y-81480000D02*
G75*
G03*
X191838478Y-83318478I2600001J0D01*
G01*
X191850000Y-83280000D02*
X191850000Y-79680000D01*
%TO.C,J2*%
X121570000Y-86250000D02*
X127350000Y-86250000D01*
X121570000Y-91350000D02*
X127350000Y-91350000D01*
X121570000Y-85130000D02*
X121570000Y-91870000D01*
X121330000Y-91470000D02*
X121330000Y-92110000D01*
X127350000Y-85130000D02*
X127350000Y-91870000D01*
X121570000Y-85130000D02*
X127350000Y-85130000D01*
X121330000Y-92110000D02*
X121730000Y-92110000D01*
X121570000Y-91870000D02*
X127350000Y-91870000D01*
%TO.C,R8*%
X168270000Y-103130000D02*
X165530000Y-103130000D01*
X165530000Y-109670000D02*
X168270000Y-109670000D01*
X168270000Y-109670000D02*
X168270000Y-103130000D01*
X166900000Y-102360000D02*
X166900000Y-103130000D01*
X165530000Y-103130000D02*
X165530000Y-109670000D01*
X166900000Y-110440000D02*
X166900000Y-109670000D01*
%TO.C,R6*%
X153770000Y-103130000D02*
X151030000Y-103130000D01*
X153770000Y-109670000D02*
X153770000Y-103130000D01*
X151030000Y-103130000D02*
X151030000Y-109670000D01*
X152400000Y-102360000D02*
X152400000Y-103130000D01*
X152400000Y-110440000D02*
X152400000Y-109670000D01*
X151030000Y-109670000D02*
X153770000Y-109670000D01*
%TO.C,D1*%
X157235516Y-118165000D02*
G75*
G03*
X157078608Y-114932665I-1235516J1560000D01*
G01*
X154920163Y-115563870D02*
G75*
G03*
X154920000Y-117645961I1079837J-1041130D01*
G01*
X154921392Y-114932665D02*
G75*
G03*
X154764484Y-118165000I1078608J-1672335D01*
G01*
X157080000Y-117645961D02*
G75*
G03*
X157079837Y-115563870I-1080000J1040961D01*
G01*
X154764000Y-118165000D02*
X154920000Y-118165000D01*
X157080000Y-118165000D02*
X157236000Y-118165000D01*
%TO.C,J7*%
X157840000Y-86250000D02*
X163620000Y-86250000D01*
X157840000Y-91870000D02*
X163620000Y-91870000D01*
X157600000Y-91470000D02*
X157600000Y-92110000D01*
X157840000Y-85130000D02*
X163620000Y-85130000D01*
X157840000Y-85130000D02*
X157840000Y-91870000D01*
X157840000Y-91350000D02*
X163620000Y-91350000D01*
X157600000Y-92110000D02*
X158000000Y-92110000D01*
X163620000Y-85130000D02*
X163620000Y-91870000D01*
%TO.C,J11*%
X186600000Y-91470000D02*
X186600000Y-92110000D01*
X186840000Y-91870000D02*
X192620000Y-91870000D01*
X186840000Y-85130000D02*
X192620000Y-85130000D01*
X186840000Y-86250000D02*
X192620000Y-86250000D01*
X186840000Y-91350000D02*
X192620000Y-91350000D01*
X186840000Y-85130000D02*
X186840000Y-91870000D01*
X192620000Y-85130000D02*
X192620000Y-91870000D01*
X186600000Y-92110000D02*
X187000000Y-92110000D01*
%TO.C,Q3*%
X133948478Y-79641522D02*
G75*
G03*
X129510000Y-81480000I-1838478J-1838478D01*
G01*
X129509999Y-81480000D02*
G75*
G03*
X133948478Y-83318478I2600001J0D01*
G01*
X133960000Y-83280000D02*
X133960000Y-79680000D01*
%TO.C,Q8*%
X165649999Y-81480000D02*
G75*
G03*
X170088478Y-83318478I2600001J0D01*
G01*
X170088478Y-79641522D02*
G75*
G03*
X165650000Y-81480000I-1838478J-1838478D01*
G01*
X170100000Y-83280000D02*
X170100000Y-79680000D01*
%TO.C,Q10*%
X180259999Y-81480000D02*
G75*
G03*
X184698478Y-83318478I2600001J0D01*
G01*
X184698478Y-79641522D02*
G75*
G03*
X180260000Y-81480000I-1838478J-1838478D01*
G01*
X184710000Y-83280000D02*
X184710000Y-79680000D01*
%TO.C,J1*%
X120120000Y-85130000D02*
X120120000Y-91870000D01*
X114340000Y-91870000D02*
X120120000Y-91870000D01*
X114340000Y-85130000D02*
X114340000Y-91870000D01*
X114100000Y-91470000D02*
X114100000Y-92110000D01*
X114340000Y-91350000D02*
X120120000Y-91350000D01*
X114340000Y-86250000D02*
X120120000Y-86250000D01*
X114100000Y-92110000D02*
X114500000Y-92110000D01*
X114340000Y-85130000D02*
X120120000Y-85130000D01*
%TO.C,J12*%
X194110000Y-85130000D02*
X194110000Y-91870000D01*
X194110000Y-85130000D02*
X199890000Y-85130000D01*
X194110000Y-86250000D02*
X199890000Y-86250000D01*
X193870000Y-91470000D02*
X193870000Y-92110000D01*
X194110000Y-91870000D02*
X199890000Y-91870000D01*
X193870000Y-92110000D02*
X194270000Y-92110000D01*
X194110000Y-91350000D02*
X199890000Y-91350000D01*
X199890000Y-85130000D02*
X199890000Y-91870000D01*
%TO.C,R4*%
X137400000Y-102360000D02*
X137400000Y-103130000D01*
X138770000Y-103130000D02*
X136030000Y-103130000D01*
X136030000Y-103130000D02*
X136030000Y-109670000D01*
X138770000Y-109670000D02*
X138770000Y-103130000D01*
X137400000Y-110440000D02*
X137400000Y-109670000D01*
X136030000Y-109670000D02*
X138770000Y-109670000D01*
%TO.C,R10*%
X180030000Y-109670000D02*
X182770000Y-109670000D01*
X180030000Y-103130000D02*
X180030000Y-109670000D01*
X182770000Y-109670000D02*
X182770000Y-103130000D01*
X181400000Y-102360000D02*
X181400000Y-103130000D01*
X182770000Y-103130000D02*
X180030000Y-103130000D01*
X181400000Y-110440000D02*
X181400000Y-109670000D01*
%TO.C,J9*%
X172100000Y-92110000D02*
X172500000Y-92110000D01*
X172340000Y-85130000D02*
X172340000Y-91870000D01*
X172340000Y-85130000D02*
X178120000Y-85130000D01*
X178120000Y-85130000D02*
X178120000Y-91870000D01*
X172340000Y-91350000D02*
X178120000Y-91350000D01*
X172340000Y-91870000D02*
X178120000Y-91870000D01*
X172100000Y-91470000D02*
X172100000Y-92110000D01*
X172340000Y-86250000D02*
X178120000Y-86250000D01*
%TO.C,Q5*%
X144009999Y-81480000D02*
G75*
G03*
X148448478Y-83318478I2600001J0D01*
G01*
X148448478Y-79641522D02*
G75*
G03*
X144010000Y-81480000I-1838478J-1838478D01*
G01*
X148460000Y-83280000D02*
X148460000Y-79680000D01*
%TO.C,J6*%
X150610000Y-85130000D02*
X156390000Y-85130000D01*
X150370000Y-92110000D02*
X150770000Y-92110000D01*
X150610000Y-85130000D02*
X150610000Y-91870000D01*
X150370000Y-91470000D02*
X150370000Y-92110000D01*
X156390000Y-85130000D02*
X156390000Y-91870000D01*
X150610000Y-86250000D02*
X156390000Y-86250000D01*
X150610000Y-91870000D02*
X156390000Y-91870000D01*
X150610000Y-91350000D02*
X156390000Y-91350000D01*
%TO.C,Q1*%
X115009999Y-81480000D02*
G75*
G03*
X119448478Y-83318478I2600001J0D01*
G01*
X119448478Y-79641522D02*
G75*
G03*
X115010000Y-81480000I-1838478J-1838478D01*
G01*
X119460000Y-83280000D02*
X119460000Y-79680000D01*
%TO.C,J3*%
X128840000Y-86250000D02*
X134620000Y-86250000D01*
X128840000Y-91350000D02*
X134620000Y-91350000D01*
X128600000Y-91470000D02*
X128600000Y-92110000D01*
X128840000Y-85130000D02*
X134620000Y-85130000D01*
X128840000Y-85130000D02*
X128840000Y-91870000D01*
X128600000Y-92110000D02*
X129000000Y-92110000D01*
X128840000Y-91870000D02*
X134620000Y-91870000D01*
X134620000Y-85130000D02*
X134620000Y-91870000D01*
%TO.C,Q9*%
X173149999Y-81480000D02*
G75*
G03*
X177588478Y-83318478I2600001J0D01*
G01*
X177588478Y-79641522D02*
G75*
G03*
X173150000Y-81480000I-1838478J-1838478D01*
G01*
X177600000Y-83280000D02*
X177600000Y-79680000D01*
%TO.C,R2*%
X124270000Y-103130000D02*
X121530000Y-103130000D01*
X124270000Y-109670000D02*
X124270000Y-103130000D01*
X122900000Y-110440000D02*
X122900000Y-109670000D01*
X121530000Y-109670000D02*
X124270000Y-109670000D01*
X122900000Y-102360000D02*
X122900000Y-103130000D01*
X121530000Y-103130000D02*
X121530000Y-109670000D01*
%TO.C,J4*%
X141890000Y-85130000D02*
X141890000Y-91870000D01*
X135870000Y-91470000D02*
X135870000Y-92110000D01*
X136110000Y-91350000D02*
X141890000Y-91350000D01*
X136110000Y-86250000D02*
X141890000Y-86250000D01*
X136110000Y-91870000D02*
X141890000Y-91870000D01*
X136110000Y-85130000D02*
X136110000Y-91870000D01*
X135870000Y-92110000D02*
X136270000Y-92110000D01*
X136110000Y-85130000D02*
X141890000Y-85130000D01*
%TO.C,R11*%
X189770000Y-109670000D02*
X189770000Y-103130000D01*
X188400000Y-110440000D02*
X188400000Y-109670000D01*
X188400000Y-102360000D02*
X188400000Y-103130000D01*
X187030000Y-103130000D02*
X187030000Y-109670000D01*
X189770000Y-103130000D02*
X187030000Y-103130000D01*
X187030000Y-109670000D02*
X189770000Y-109670000D01*
%TO.C,Q12*%
X199198478Y-79641522D02*
G75*
G03*
X194760000Y-81480000I-1838478J-1838478D01*
G01*
X194759999Y-81480000D02*
G75*
G03*
X199198478Y-83318478I2600001J0D01*
G01*
X199210000Y-83280000D02*
X199210000Y-79680000D01*
%TO.C,R12*%
X195900000Y-102360000D02*
X195900000Y-103130000D01*
X197270000Y-103130000D02*
X194530000Y-103130000D01*
X197270000Y-109670000D02*
X197270000Y-103130000D01*
X194530000Y-109670000D02*
X197270000Y-109670000D01*
X194530000Y-103130000D02*
X194530000Y-109670000D01*
X195900000Y-110440000D02*
X195900000Y-109670000D01*
%TD*%
D14*
%TO.C,H3*%
X149098000Y-70866000D03*
X151638000Y-70866000D03*
X154178000Y-70866000D03*
X156718000Y-70866000D03*
X159258000Y-70866000D03*
X161798000Y-70866000D03*
X164338000Y-70866000D03*
X166878000Y-70866000D03*
%TD*%
%TO.C,H2*%
X127300000Y-70866000D03*
X129840000Y-70866000D03*
X132380000Y-70866000D03*
X134920000Y-70866000D03*
X137460000Y-70866000D03*
X140000000Y-70866000D03*
X142540000Y-70866000D03*
X145080000Y-70866000D03*
%TD*%
%TO.C,H1*%
X131318000Y-119126000D03*
X133858000Y-119126000D03*
X136398000Y-119126000D03*
X138938000Y-119126000D03*
X141478000Y-119126000D03*
X144018000Y-119126000D03*
X146558000Y-119126000D03*
X149098000Y-119126000D03*
%TD*%
D15*
%TO.C,P1*%
X117348000Y-119126000D03*
%TD*%
%TO.C,P3*%
X199898000Y-119126000D03*
%TD*%
%TO.C,P4*%
X118618000Y-70866000D03*
%TD*%
%TO.C,P2*%
X193548000Y-70866000D03*
%TD*%
M02*
